<svg data-v-423bf9ae="" xmlns="http://www.w3.org/2000/svg" viewBox="0 0 34.25281503039653 60" class="icon"><!----><!----><!----><!----><g data-v-423bf9ae="" id="18fda7ee-46bc-4af4-8c06-b79114061a44" transform="matrix(0.666354629264657,0,0,0.666354629264657,-13.203359677245402,-0.4270397637553742)" stroke="none" fill="white"><path d="M53.364 41.163c10.427.754 19.104-8.87 17.705-19.243C69.271 8.601 58.112-.04 46.231.683c-11.685.706-22.678 8.635-25.561 22.319-3.598 17.09 4.506 27.25 17.643 34.561 4.721 2.627 15.549 7.881 18.358 12.914 2.921 5.229 2.877 14.087-4.324 20.206 10.928-5.057 15.824-12.054 16.562-19.799.719-7.563-3.24-14.762-8.28-18.723-8.813-6.927-16.722-7.782-17.994-16.556-.582-3.998 1.873-7.922 6.295-6.921 5.891 1.332 4.13 8.674.479 11.623 6.302-2.862 9.769-10.262 5.676-16.836-3.335-5.353-10.35-7.346-16.141-1.968 4.965-8.277 16.183-5.621 19.045-2.084 5.97 7.391 2.244 16.727-4.625 21.744z"></path></g><!----></svg>