<svg data-v-fde0c5aa="" xmlns="http://www.w3.org/2000/svg" viewBox="0 0 300 300" class="icon"><!----><defs data-v-fde0c5aa=""><!----></defs><rect data-v-fde0c5aa="" fill="#F1E4E9" x="0" y="0" width="300px" height="300px" class="logo-background-square"></rect><!----><defs data-v-fde0c5aa=""><linearGradient data-v-fde0c5aa="" gradientTransform="rotate(25)" id="7cb33c78-89a9-4e0c-87b0-94ad266c84b9" x1="0%" y1="0%" x2="100%" y2="0%"><stop data-v-fde0c5aa="" offset="0%" stop-color="#0D2545" stop-opacity="1"></stop><stop data-v-fde0c5aa="" offset="100%" stop-color="#A21F44" stop-opacity="1"></stop></linearGradient></defs><g data-v-fde0c5aa="" id="0c8b3e14-51b9-4552-a242-a966c97c53c8" fill="url(#7cb33c78-89a9-4e0c-87b0-94ad266c84b9)" stroke="none" transform="matrix(2.4433003073037427,0,0,2.4433003073037427,38.79085323136647,38.434187532896956)"><path d="M53.364 41.163c10.427.754 19.104-8.87 17.705-19.243C69.271 8.601 58.112-.04 46.231.683c-11.685.706-22.678 8.635-25.561 22.319-3.598 17.09 4.506 27.25 17.643 34.561 4.721 2.627 15.549 7.881 18.358 12.914 2.921 5.229 2.877 14.087-4.324 20.206 10.928-5.057 15.824-12.054 16.562-19.799.719-7.563-3.24-14.762-8.28-18.723-8.813-6.927-16.722-7.782-17.994-16.556-.582-3.998 1.873-7.922 6.295-6.921 5.891 1.332 4.13 8.674.479 11.623 6.302-2.862 9.769-10.262 5.676-16.836-3.335-5.353-10.35-7.346-16.141-1.968 4.965-8.277 16.183-5.621 19.045-2.084 5.97 7.391 2.244 16.727-4.625 21.744z"></path></g><!----></svg>